<svg id="Calque_1" xmlns="http://www.w3.org/2000/svg" viewBox="0 0 841.9 595.3"><style>.st0{fill:#fff}</style><path class="st0" d="M339.2 503.4h8c4.3 0 8.2.5 11.6 2.6s5.4 5.3 5.4 8.5-1.8 6.2-4.8 8.3c-3.5 2.4-7.4 2.9-12 2.9h-8.2v-22.3zm6.8 20.2c3.9 0 7.4-.1 10.7-2 3-1.7 4.5-4.3 4.6-7.1 0-2.9-1.6-5.2-4.6-7-3.2-1.9-6.7-2-10.7-2h-3.8v18.2h3.8v-.1zm23-20.2h16.2v2H372v8h12.8v2H372v8.2h13.2v2H369v-22.2zm32.6 0h7.8c2.8 0 5.5.1 7.9 1.2 2.6 1.2 3.9 3.2 3.9 5.5 0 2-1.1 3.9-3.4 5.2s-4.9 1.4-7.7 1.4h-5.6v9h-3v-22.3h.1zm8.1 11.3c2.1 0 4.2-.1 6-.9 1.7-.8 2.6-2.3 2.6-3.7 0-1.9-1.4-3.4-3.7-4.2-2-.6-4.1-.5-6.2-.5h-3.8v9.2h5.1v.1zm22.9-11.3h3.3l12.7 22.2h-3.2l-4.3-7.5h-13.8l-4.3 7.5h-3.2l12.8-22.2zm7.3 12.8l-5.7-10.2-5.8 10.2h11.5zm12.2-12.8h7c2.8 0 5.9 0 8.4 1.1 3 1.3 4.6 3.6 4.6 6.2 0 3.6-3.9 6.6-8.7 6.7l8.3 8.3H468l-10-10.2h.9c2.1 0 4.5.1 6.5-.6 2.4-.8 3.8-2.5 3.8-4.5 0-1.5-1.1-3.1-2.8-4-2-1.1-4.4-1.1-6.7-1.1H455v20.2h-3v-22.1h.1zm25.8 22.2v-22.2m-1.5 0h3v22.2h-3zm10.1 16c.1 2.4 2.6 4.5 5.9 4.5 3.4 0 6.1-1.8 6.1-4.4 0-1.2-.8-2.4-2-3.2-1.4-.8-2.9-1.1-4.6-1.5-1.8-.4-3.7-.7-5.2-1.7-1.6-1.1-2.5-2.6-2.5-4.1 0-3.6 3.8-6 8.4-6 4.5 0 8.2 2.6 8.1 6h-3.1c-.2-2.3-2.4-3.9-5.4-3.9-2.9 0-5.1 1.8-5.1 3.9 0 2.7 3 3.3 5.9 3.9 2.1.5 4 .7 5.7 1.9 1.8 1.1 2.8 2.9 2.8 4.7 0 3.7-4.2 6.5-9 6.5-5 0-9.2-2.7-9.2-6.6h3.2zM54.1 543.1H70v2H57v7.9h12.6v2H57.1v8h13v2h-16v-21.9zm10.7-7l1.4 1.7-7.6 3.4-1.3-1.7 7.5-3.4zm37-66.5c-2.2-2.5-6.4-3.9-10.3-3.9-6.7 0-12.4 4.4-12.4 9.3 0 5.2 5.9 9.4 12.6 9.4 4 0 7.9-1.6 10.3-4.1h3.3c-2.6 3.7-8 6.2-13.6 6.2-8.7 0-15.6-5-15.6-11.6 0-6.3 6.9-11.4 15.3-11.4 3 0 6 .6 8.5 1.9 1.9.9 4.3 2.6 5.1 4.2h-3.2zm40.2 5.3c0 6.5-7.1 11.6-15.7 11.6-8.3 0-15.6-5-15.6-11.4 0-6.5 7.1-11.6 15.6-11.6 8.4 0 15.7 5 15.7 11.4m-3 0c0-5.1-5.9-9.3-12.7-9.3-7.1 0-12.7 4.2-12.7 9.4 0 5.1 6 9.3 12.7 9.3 7 0 12.7-4.1 12.7-9.4m9.8-11h3v20.2H164v2h-15.2v-22.2zm20.5 0h16.2v2h-13.2v8h12.8v2h-12.8v8.2h13.2v2h-16.2v-22.2zm37.6 0h8c4.2 0 8.2.5 11.6 2.6 3.4 2.1 5.4 5.3 5.4 8.5s-1.8 6.2-4.8 8.3c-3.5 2.4-7.4 2.9-12 2.9h-8.2v-22.3zm6.8 20.2c3.9 0 7.4-.1 10.7-2 3-1.7 4.5-4.3 4.6-7.1 0-2.9-1.6-5.2-4.6-7-3.2-1.9-6.7-2-10.7-2h-3.8v18.2h3.8v-.1zm25.1-20.2H255v2h-13.3v8h12.8v2h-12.8v8.2H255v2h-16.2v-22.2zm24.5 15.9c.1 2.4 2.6 4.5 5.9 4.5 3.4 0 6.1-1.8 6.1-4.4 0-1.2-.8-2.4-2-3.2-1.4-.8-2.9-1.1-4.6-1.5-1.9-.4-3.7-.7-5.2-1.7-1.6-1.1-2.5-2.6-2.5-4.2 0-3.6 3.8-6 8.4-6 4.5 0 8.2 2.6 8.1 6h-3.1c-.2-2.3-2.4-3.9-5.4-3.9-2.9 0-5.1 1.8-5.1 3.9 0 2.7 3 3.3 5.9 3.9 2.1.5 4 .7 5.7 1.9 1.8 1.1 2.8 2.9 2.8 4.7 0 3.7-4.2 6.5-9 6.5-5 0-9.2-2.7-9.2-6.6h3.2v.1zm35.5 6.3v-22.2m-1.5 0h3v22.2h-3zm11.1 0h4l16.6 18.4v-18.4h3v22.2h-3l-17.6-19.6v19.6h-3v-22.2zm61.9 11.9c-.6 6.1-7.7 10.6-15.7 10.6-8.5 0-15.9-5.1-15.9-11.6 0-2.9 1.8-5.9 4.6-8 3.1-2.3 7.1-3.4 11.3-3.4 3.1 0 6.1.6 8.7 1.9 1.9 1 4.4 2.7 5.2 4.4h-3.4c-2.1-2.6-6.4-4.2-10.5-4.2-3.2 0-6.4.8-8.8 2.5s-4.1 4.2-4.1 6.8c0 5.4 6 9.4 13 9.4 5.3 0 10.5-2.6 12-6.5h-16.6v-2h20.2v.1zm6.7-11.9h16.2v2H380v8h12.8v2H380v8.2h13.2v2H377v-22.2zm10.9-7.2l1.4 1.8-7.7 3.4-1.4-1.7 7.7-3.5zm12.6 7.2h4l16.6 18.4v-18.4h3v22.2h-3l-17.6-19.6v19.6h-3v-22.2zm33.2 22.2v-22.2m-1.5 0h3v22.2h-3zm11 0h16.2v2h-13.2v8H459v2h-12.8v8.2h13.2v2h-16.2v-22.2zm26.5 0v13.5c0 1.6.2 3.3 1.4 4.7 1.2 1.5 3.5 2.3 5.8 2.3 2.1 0 4.2-.7 5.5-2 1.4-1.4 1.6-3.2 1.6-5v-13.5h3v13.5c0 2.3-.3 4.4-2.2 6.3-1.8 1.8-4.8 2.8-7.9 2.8-3 0-5.9-.9-7.7-2.7-2-1.9-2.4-4.1-2.4-6.5v-13.5h2.9v.1zm25.3 0h7.1c2.8 0 5.9 0 8.4 1.1 3 1.3 4.6 3.6 4.6 6.2 0 3.6-3.9 6.6-8.7 6.7l8.3 8.3H511L500.9 476h.9c2.1 0 4.5.1 6.4-.6 2.4-.8 3.9-2.5 3.9-4.5 0-1.5-1.1-3.1-2.8-4-2-1.1-4.4-1.1-6.7-1.1H498V486h-3v-22.1zm27.3 15.9c.1 2.4 2.6 4.5 5.9 4.5 3.4 0 6.1-1.8 6.1-4.4 0-1.2-.8-2.4-2-3.2-1.4-.8-2.9-1.1-4.6-1.5-1.8-.4-3.7-.7-5.2-1.7-1.6-1.1-2.5-2.6-2.5-4.2 0-3.6 3.8-6 8.4-6 4.5 0 8.2 2.6 8.1 6h-3.1c-.2-2.3-2.4-3.9-5.4-3.9-2.9 0-5.1 1.8-5.1 3.9 0 2.7 3 3.3 5.9 3.9 2.1.5 4 .7 5.7 1.9 1.8 1.1 2.8 2.9 2.8 4.7 0 3.7-4.2 6.5-9 6.5-5 0-9.2-2.7-9.2-6.6h3.2v.1zm34.1-15.9h8c4.2 0 8.2.5 11.6 2.6 3.4 2.1 5.4 5.3 5.4 8.5s-1.8 6.2-4.9 8.3c-3.5 2.4-7.4 2.9-12 2.9h-8.2v-22.3h.1zm6.8 20.2c3.9 0 7.4-.1 10.7-2 3-1.7 4.5-4.3 4.6-7.1 0-2.9-1.6-5.2-4.6-7-3.2-1.9-6.7-2-10.7-2h-3.8v18.2h3.8v-.1zm25-20.2h16.2v2h-13.2v8H604v2h-12.8v8.2h13.2v2h-16.2v-22.2zm36.6 0h3v20.2h12.3v2h-15.3v-22.2zm30.7 0h3.3l12.7 22.2h-3.2l-4.3-7.5h-13.8l-4.3 7.5h-3.2l12.8-22.2zm7.4 12.7l-5.7-10.2-5.8 10.2h11.5zm24.6-12.7h3.2l10.4 19.4 10.5-19.4h3.2l-12.3 22.2h-2.8l-12.2-22.2zm34.3 22.2v-22.2m-1.5 0h3v22.2h-3zm11 0h3v20.2h12.3v2h-15.3v-22.2zm20.6 0h2.9v20.2h12.3v2h-15.2v-22.2zm20.5 0h16.2v2h-13.2v8h12.7v2h-12.7v8.2h13.2v2h-16.2v-22.2zm-718.5 0h16.2v2H56.9v8h12.8v2H56.9v8.2h13.2v2H53.9v-22.2zm10.9-7.2l1.4 1.7-7.7 3.4-1.4-1.7 7.7-3.4zm36 92c-2.2-2.5-6.3-3.9-10.2-3.9-6.6 0-12.2 4.3-12.2 9.1 0 5.1 5.8 9.3 12.4 9.3 3.9 0 7.8-1.6 10.1-4h3.2c-2.5 3.6-7.8 6.1-13.3 6.1-8.5 0-15.3-4.9-15.3-11.4 0-6.2 6.8-11.2 15-11.2 2.9 0 5.9.6 8.4 1.8 1.9.9 4.3 2.5 5 4.1h-3.1v.1zm39 5.2c0 6.3-7 11.4-15.4 11.4-8.1 0-15.4-4.9-15.4-11.2s6.9-11.4 15.4-11.4c8.3 0 15.4 5 15.4 11.2m-2.9 0c0-5-5.8-9.1-12.4-9.1-6.9 0-12.5 4.1-12.5 9.3 0 5 5.9 9.1 12.5 9.1 6.8 0 12.4-4.1 12.4-9.3m9.2-10.8h3v19.8h12v2h-15v-21.8zm19.8 0h15.9v2h-13v7.8h12.6v2h-12.6v8h13v2h-15.9v-21.8zm36.1 15.7c.1 2.4 2.6 4.4 5.8 4.4 3.3 0 6-1.8 6-4.3 0-1.2-.8-2.4-2-3.1-1.3-.8-2.8-1.1-4.5-1.4-1.8-.4-3.7-.7-5.1-1.6-1.6-1-2.4-2.5-2.4-4.1 0-3.5 3.7-5.9 8.3-5.9 4.4 0 8 2.6 8 5.9h-3c-.2-2.2-2.3-3.8-5.3-3.8-2.8 0-5 1.7-5 3.8 0 2.6 2.9 3.2 5.7 3.8 2.1.4 3.9.7 5.6 1.9 1.7 1.1 2.7 2.8 2.7 4.6 0 3.6-4.1 6.4-8.9 6.4-5 0-9-2.7-9-6.5h3.1v-.1zm23.1-15.7v13.3c0 1.6.2 3.2 1.3 4.6 1.2 1.4 3.4 2.3 5.7 2.3 2.1 0 4.1-.7 5.4-2 1.4-1.4 1.6-3.2 1.6-4.9v-13.3h2.9v13.3c0 2.2-.3 4.3-2.2 6.2-1.8 1.8-4.7 2.8-7.7 2.8-2.9 0-5.7-.9-7.6-2.6-2-1.9-2.3-4-2.3-6.3v-13.3l2.9-.1zm24.4 0h7.6c2.7 0 5.4.1 7.8 1.2 2.5 1.2 3.8 3.2 3.8 5.4 0 2-1.1 3.8-3.3 5-2.2 1.2-4.8 1.4-7.6 1.4h-5.5v8.8h-2.9v-21.8h.1zm8 11c2 0 4.1-.1 5.9-.9 1.7-.8 2.6-2.2 2.6-3.6 0-1.9-1.3-3.4-3.6-4.1-1.9-.6-4.1-.5-6.1-.5h-3.7v9.1h4.9zm16.9-11h15.9v2h-13v7.9h12.6v2h-12.6v8h13v2h-15.9v-21.9zm10.7-7l1.4 1.7-7.6 3.4-1.3-1.7 7.5-3.4zm12 7h6.9c2.8 0 5.8 0 8.3 1.1 2.9 1.3 4.5 3.5 4.5 6 0 3.6-3.9 6.5-8.6 6.6l8.2 8.1h-3.6l-9.9-9.9h.9c2 0 4.4.1 6.3-.6 2.4-.8 3.8-2.5 3.8-4.4 0-1.5-1.1-3-2.7-3.9-1.9-1-4.3-1-6.6-1H300v19.8h-2.9v-21.8zm26.9 21.8v-21.8m-1.5 0h2.9v21.8h-2.9zm10.5 0h15.9v2h-13v7.8h12.5v2h-12.5v8h13v2H333v-21.8zm25.6 0v13.3c0 1.6.2 3.2 1.3 4.6 1.2 1.4 3.4 2.3 5.7 2.3 2 0 4.1-.7 5.4-2 1.4-1.4 1.6-3.2 1.6-4.9v-13.3h2.9v13.3c0 2.2-.3 4.3-2.2 6.2-1.8 1.8-4.7 2.8-7.7 2.8-2.9 0-5.7-.9-7.6-2.6-2-1.9-2.3-4-2.3-6.3v-13.3l2.9-.1zm24.4 0h6.9c2.8 0 5.8 0 8.3 1.1 3 1.3 4.5 3.5 4.5 6 0 3.6-3.9 6.5-8.6 6.6l8.2 8.1h-3.6l-9.9-9.9h.9c2 0 4.4.1 6.3-.6 2.4-.8 3.8-2.5 3.8-4.4 0-1.5-1.1-3-2.7-3.9-1.9-1-4.3-1-6.6-1h-4.6v19.8H383v-21.8zm293.6 0h6.9c2.8 0 5.8 0 8.3 1.1 3 1.3 4.5 3.5 4.5 6 0 3.6-3.9 6.5-8.6 6.6l8.2 8.1h-3.6l-9.9-9.9h.9c2 0 4.4.1 6.3-.6 2.4-.8 3.8-2.5 3.8-4.4 0-1.5-1.1-3-2.7-3.9-1.9-1-4.3-1-6.6-1h-4.6v19.8h-2.9v-21.8zm-268.1 0h15.9v2h-13v7.8h12.5v2h-12.5v8h13v2h-15.9v-21.8zm35.1 0h7.8c4.2 0 8.1.5 11.4 2.5s5.3 5.2 5.3 8.3-1.8 6-4.8 8.1c-3.5 2.4-7.3 2.8-11.8 2.8h-8v-21.7h.1zm6.6 19.8c3.9 0 7.3-.1 10.5-2 2.9-1.7 4.4-4.2 4.5-7 0-2.8-1.5-5.1-4.5-6.9-3.2-1.9-6.6-2-10.5-2h-3.7v17.9h3.7zm27.1-19.8v13.3c0 1.6.2 3.2 1.3 4.6 1.2 1.4 3.4 2.3 5.7 2.3 2 0 4.1-.7 5.3-2 1.4-1.4 1.6-3.2 1.6-4.9v-13.3h2.9v13.3c0 2.2-.3 4.3-2.2 6.2-1.8 1.8-4.7 2.8-7.7 2.8-2.9 0-5.7-.9-7.6-2.6-2-1.9-2.3-4-2.3-6.3v-13.3l3-.1zm66.7 11.8c-.6 6-7.6 10.5-15.4 10.5-8.4 0-15.6-5-15.6-11.4 0-2.9 1.8-5.8 4.5-7.8 3-2.2 6.9-3.3 11.1-3.3 3 0 6 .6 8.5 1.9 1.9 1 4.3 2.6 5.1 4.3h-3.3c-2-2.6-6.3-4.1-10.3-4.1-3.1 0-6.2.8-8.6 2.4-2.4 1.7-4 4.2-4 6.6 0 5.3 5.9 9.3 12.8 9.3 5.2 0 10.3-2.6 11.8-6.4h-16.3v-2H544zm6.1-11.8H566v2h-13v7.9h12.6v2H553v8h13v2h-15.9v-21.9zm10.7-7l1.4 1.7-7.6 3.4-1.3-1.7 7.5-3.4zm12 7h3.9l16.3 18.1v-18.1h2.9v21.8H593l-17.3-19.2v19.2h-2.9v-21.8zm32.2 21.8v-21.8m-1.5 0h2.9v21.8h-2.9zm10.5 0h15.9v2h-13v7.8h12.5v2h-12.5v8h13v2H614v-21.8zm39 0v13.3c0 1.6.2 3.2 1.3 4.6 1.2 1.4 3.4 2.3 5.7 2.3 2 0 4.1-.7 5.4-2 1.4-1.4 1.6-3.2 1.6-4.9v-13.3h2.9v13.3c0 2.2-.3 4.3-2.2 6.2-1.8 1.8-4.7 2.8-7.7 2.8-2.9 0-5.7-.9-7.6-2.6-2-1.9-2.3-4-2.3-6.3v-13.3l2.9-.1zm47.4 0h6.8c2.3 0 4.6.1 6.6 1.1 2.1 1 3.4 2.8 3.4 4.7s-1.2 3.3-3.2 4.4c3.1.9 4.8 3 4.8 5.5 0 2-1.3 3.9-3.6 5-2.6 1.2-5.1 1.2-8 1.2h-6.8v-21.9zm6 9.3c1.8 0 3.9 0 5.5-.7 1.4-.6 2.4-1.8 2.4-3s-1-2.4-2.3-3c-1.5-.7-3.6-.7-5.3-.7h-3.4v7.3h3.1v.1zm.5 10.5c2 0 4.4 0 6.1-.7 1.7-.6 2.9-2.1 2.8-3.5 0-1.9-1.4-3.3-3.6-3.9-1.8-.5-3.9-.4-5.9-.4h-3.1v8.5h3.7zm27.6-19.8h3.2l12.5 21.8H747l-4.2-7.3h-13.5l-4.2 7.3H722l12.5-21.8zm7.2 12.5l-5.6-10-5.7 10h11.3zm15 9.3v-21.8m-1.5 0h2.9v21.8h-2.9zm10.5 0h3.9l16.3 18.1v-18.1h2.9v21.8h-2.9l-17.3-19.2v19.2h-2.9v-21.8zM86 513h242.2v4.8H86V513zm428.2 0h242.2v4.8H514.2V513zm60.6-250.6l11.6-48.6h2.1l12.4 48.2-26.1.4zm10.5 24c8.2 0 15 11.2 15.6 25.4h15.9c.1-1.2.2-2.4.2-3.6 0-18.2-13.7-32.9-30.5-32.9S556 290 556 308.2c0 1.2.1 2.4.2 3.6h13.7c.5-14.3 7.2-25.4 15.4-25.4"/><path class="st0" d="M633.7 292.1c-13.1-18.3-30.2-108.8-30.2-116.2v-41.2h2.1v-6.5h1.1v-8.3h-4.2v-5.5L601 113v-5h-2v-3.3l-3.3-3.3v-2l-1.8-1.8h-3.4V62h-1.6V30.8h-2.8V62h-1.6v35.5h-3.4l-1.8 1.8v2l-3.3 3.3v3.3h-2v5l-1.5 1.5v5.5h-4.2v8.3h1v6.5h2.1v41.2c0 6.5-10.7 69.9-26 104.4v-.6l-35.4-.1V174h-34.9v96.5h-16.9v-10.6h-9.9V250h-51.1v-9.6l-37-.1v-43.7l-3.1-2.8v-7.4c0-5.3-7.1-19.9-14.1-21.5v-9.5h-3.5v9.3s-6.1 3.9-6.6 7.2H330s-5.4-16.6-16-20.4V131l-3.5.2v20.6c-10.7 3.8-16 20.4-16 20.4h-2.9c-.5-3.3-6.6-7.2-6.6-7.2v-9.3h-3.5v9.5c-7 1.6-14.1 16.2-14.1 21.5v7.4l-3.1 2.8v43.7H252v14.8h-35v13.8h-53.3l-5.5 5.5v41.2h11.1v-34.3h75.5v-12.4h-17.6v-3.3h47.9v-11.3h-12.3v-2.8h17.3v-11.3h-2.8v-42.6c0-4.9 1.4-20.8 6.3-20.8s4.9 12.3 4.9 20.4h12c0-13.6 6-31.6 11.4-32.7 5.5 1.1 11.4 19 11.4 32.7h12c0-8.1 0-20.4 4.9-20.4s6.3 15.8 6.3 20.8v53.9H388v9.5h49v11.6h8.1v8.8h40.8v-94.4h11.3v105.4l54.9.2c13-20.2 29.5-98.9 29.5-115s1.6-61.4 1.6-61.4l1.8-1.8v-2.3l.8-.8v-1.1l1.1-1 1.1 1v1.1l.8.8v2.3l1.8 1.8s1.6 45.3 1.6 61.4 18.4 108.6 35 125.2h44.2v16.5h11.2v-27.7h-48.9v.2zM92 350.5h117.3v11.1H92v-11.1zm-17.4 21.4h134.7V383H74.6v-11.1zm-21 20.6h155.6v11.1H53.6v-11.1zm580-42h117.3v11.1H633.6v-11.1zm0 21.4h134.7V383H633.6v-11.1zm0 20.6h155.6v11.1H633.6v-11.1zm-400.4 37.2V426c4.3-.1 7.3-.7 9.1-1.8 2.8-1.6 4.1-4.5 4.1-8.8v-72.1c0-4.4-1.4-7.3-4.3-8.8-1.7-.9-4.6-1.5-8.9-1.8V329h85.6v30.1H315c-1.9-9.6-5.1-16.2-9.5-19.8-4.5-3.5-12.7-5.3-24.5-5.3-4.5 0-7.4.5-8.6 1.4s-1.8 2.8-1.8 5.6v34.4c8.4.1 14.1-1.4 17.1-4.5s5.3-8.8 6.8-17.1h3.8v49.6h-3.8c-1.1-8.4-3.2-14.4-6.4-17.8-3.2-3.4-9.1-5.2-17.5-5.2v36c0 3.1.8 5.3 2.4 6.4s4.9 1.7 9.9 1.7c9.4 0 17.1-1.8 23.1-5.4s11.3-10.4 15.9-20.4h4.1l-6.1 30.9-86.7.1zm110.3-3.7c4.2-.1 7.2-.6 9-1.5 3-1.6 4.5-4.6 4.5-9v-72.1c0-4.4-1.4-7.4-4.2-8.9-1.7-.9-4.8-1.5-9.2-1.7v-3.7h52v3.7c-4.7.2-7.9.7-9.6 1.6-2.9 1.5-4.4 4.5-4.4 9v72.1c0 4.2 1.2 7 3.5 8.4s5.8 2.1 10.5 2.1v3.7h-52l-.1-3.7zm118.6-96.9v3.7c-5.3.3-8.8.7-10.3 1.3-1.6.6-2.4 2.1-2.4 4.6 0 .8.1 1.5.2 2.2s.3 1.4.7 2.2l23.5 55.1 19.5-50.5c.4-1.1.8-2.3 1.2-3.4.6-1.9.9-3.4.9-4.6 0-2.8-.8-4.6-2.5-5.3-1.7-.7-5.1-1.2-10.2-1.6v-3.7h31.6v3.7c-3.6.4-6.3 1.4-8.2 3.2-1.8 1.7-3.6 4.7-5.3 9.1l-33.9 87.6h-4l-38.1-89.3c-1.5-3.6-3.1-6.2-4.7-7.7-1.6-1.6-4.1-2.5-7.6-2.8v-3.7h49.6v-.1zm68.7 96.9c5-.3 8.4-1.4 10.1-3.1 1.7-1.7 2.6-5.3 2.6-10.6v-65.8c0-5.6-.9-9.2-2.6-10.7-1.7-1.5-5.1-2.5-10.1-3v-3.7h48c12.7 0 22.4 2.1 29 6.2s9.9 11.2 9.9 21.2c0 4.9-1.3 9.5-3.9 13.7-2.6 4.3-6.8 7.7-12.8 10.3-4.5 1.8-9 2.9-13.5 3.3-4.5.3-11.2.5-20 .5v28c0 5.5.9 9.2 2.7 10.9 1.8 1.7 5.2 2.7 10.2 2.9v3.7h-49.6V426zm54.5-49.6c4.7-3 7.1-9.5 7.1-19.5 0-6.8-1.1-12.3-3.4-16.5-2.3-4.2-6.6-6.3-13.1-6.3-3 0-5.1.4-6.4 1.1-1.3.7-1.9 2.1-1.9 4.1v40.2c8.8-.1 14.7-1.2 17.7-3.1"/></svg>